<?xml version="1.0" standalone="no"?>
<!DOCTYPE svg PUBLIC "-//W3C//DTD SVG 20010904//EN"
 "http://www.w3.org/TR/2001/REC-SVG-20010904/DTD/svg10.dtd">
<svg version="1.0" xmlns="http://www.w3.org/2000/svg"
 width="80.000000pt" height="80.000000pt" viewBox="0 0 80.000000 80.000000"
 preserveAspectRatio="xMidYMid meet">

<g transform="translate(0.000000,80.000000) scale(0.100000,-0.100000)"
fill="#000000" stroke="none">
<path d="M368 503 c17 -2 47 -2 65 0 17 2 3 4 -33 4 -36 0 -50 -2 -32 -4z"/>
<path d="M500 475 c13 -14 26 -25 28 -25 3 0 -5 11 -18 25 -13 14 -26 25 -28
25 -3 0 5 -11 18 -25z"/>
<path d="M279 463 c-13 -16 -12 -17 4 -4 9 7 17 15 17 17 0 8 -8 3 -21 -13z"/>
<path d="M343 468 c7 -4 32 -8 57 -8 25 0 50 4 57 8 6 4 -20 7 -57 7 -37 0
-63 -3 -57 -7z"/>
<path d="M294 439 c-9 -10 -14 -28 -11 -41 4 -20 4 -20 6 5 0 16 5 26 10 23 4
-3 16 3 25 13 14 15 14 18 1 18 -8 0 -22 -8 -31 -18z"/>
<path d="M475 439 c10 -10 21 -16 26 -14 4 3 10 -7 12 -22 l4 -28 2 26 c1 27
-19 51 -46 55 -12 2 -11 -1 2 -17z"/>
<path d="M332 408 c-7 -7 -12 -22 -12 -34 0 -13 -5 -26 -11 -30 -8 -4 -9 1 -5
17 6 20 5 21 -4 7 -8 -13 -7 -25 5 -48 9 -17 20 -28 25 -25 4 3 11 -1 13 -7 4
-10 6 -10 6 0 1 8 6 10 14 6 8 -5 7 -2 -2 9 -10 13 -17 15 -27 6 -17 -14 -18
2 -1 21 10 12 9 12 -5 1 -11 -8 -18 -9 -18 -3 0 6 5 14 10 17 6 3 10 16 10 29
0 12 5 27 12 34 7 7 10 12 7 12 -3 0 -10 -5 -17 -12z"/>
<path d="M404 408 c-4 -6 -3 -8 4 -5 16 10 42 -3 43 -22 0 -12 2 -13 6 -2 3 8
-2 20 -13 28 -22 16 -31 16 -40 1z"/>
<path d="M364 381 c2 -44 16 -50 16 -8 0 21 -4 37 -9 37 -5 0 -8 -13 -7 -29z"/>
<path d="M490 376 c0 -8 4 -17 9 -20 5 -4 7 3 4 14 -6 23 -13 26 -13 6z"/>
<path d="M531 364 c0 -11 3 -14 6 -6 3 7 2 16 -1 19 -3 4 -6 -2 -5 -13z"/>
<path d="M486 336 c6 -15 4 -17 -6 -11 -9 6 -11 4 -5 -4 5 -9 10 -10 18 -2 8
8 7 14 -2 24 -10 10 -11 8 -5 -7z"/>
<path d="M430 309 l25 -10 -22 -12 c-12 -7 -23 -16 -25 -22 -2 -5 -8 -9 -14
-9 -13 2 -13 -21 1 -33 4 -5 5 -2 0 6 -6 11 -4 13 9 8 9 -4 15 -3 12 2 -8 12
44 62 57 54 6 -3 7 -1 3 6 -4 6 -12 9 -17 6 -5 -4 -9 -1 -9 4 0 6 -10 11 -22
10 -22 0 -22 -1 2 -10z"/>
<path d="M497 287 l-17 -32 20 24 c17 20 26 41 18 41 -2 0 -11 -15 -21 -33z"/>
<path d="M289 292 c5 -10 18 -25 27 -33 11 -9 9 -2 -6 19 -26 35 -36 42 -21
14z"/>
<path d="M346 258 c3 -5 10 -6 15 -3 13 9 11 12 -6 12 -8 0 -12 -4 -9 -9z"/>
<path d="M340 236 c0 -2 8 -10 18 -17 15 -13 16 -12 3 4 -13 16 -21 21 -21 13z"/>
</g>
</svg>
